ffmpeg version 4.4.2-0ubuntu0.22.04.1 Copyright (c) 2000-2021 the FFmpeg developers
  built with gcc 11 (Ubuntu 11.2.0-19ubuntu1)
  configuration: --prefix=/usr --extra-version=0ubuntu0.22.04.1 --toolchain=hardened --libdir=/usr/lib/x86_64-linux-gnu --incdir=/usr/include/x86_64-linux-gnu --arch=amd64 --enable-gpl --disable-stripping --enable-gnutls --enable-ladspa --enable-libaom --enable-libass --enable-libbluray --enable-libbs2b --enable-libcaca --enable-libcdio --enable-libcodec2 --enable-libdav1d --enable-libflite --enable-libfontconfig --enable-libfreetype --enable-libfribidi --enable-libgme --enable-libgsm --enable-libjack --enable-libmp3lame --enable-libmysofa --enable-libopenjpeg --enable-libopenmpt --enable-libopus --enable-libpulse --enable-librabbitmq --enable-librubberband --enable-libshine --enable-libsnappy --enable-libsoxr --enable-libspeex --enable-libsrt --enable-libssh --enable-libtheora --enable-libtwolame --enable-libvidstab --enable-libvorbis --enable-libvpx --enable-libwebp --enable-libx265 --enable-libxml2 --enable-libxvid --enable-libzimg --enable-libzmq --enable-libzvbi --enable-lv2 --enable-omx --enable-openal --enable-opencl --enable-opengl --enable-sdl2 --enable-pocketsphinx --enable-librsvg --enable-libmfx --enable-libdc1394 --enable-libdrm --enable-libiec61883 --enable-chromaprint --enable-frei0r --enable-libx264 --enable-shared
  libavutil      56. 70.100 / 56. 70.100
  libavcodec     58.134.100 / 58.134.100
  libavformat    58. 76.100 / 58. 76.100
  libavdevice    58. 13.100 / 58. 13.100
  libavfilter     7.110.100 /  7.110.100
  libswscale      5.  9.100 /  5.  9.100
  libswresample   3.  9.100 /  3.  9.100
  libpostproc    55.  9.100 / 55.  9.100
Input #0, flv, from '/storage/32426326/20250726/32426326-20250726-154151-780.flv':
  Metadata:
    fps             : 60
    4.0             : false
    2.1             : false
    audiochannels   : 2
    4.1             : false
    displayWidth    : 2560
    5.1             : false
    3.1             : false
    7.1             : false
    encoder         : obs-output module (libobs version 31.0.2)
    displayHeight   : 1440
    cdn_ip          : 192.168.252.5
    fileSize        : 0
    Title           : 技术主播没有GG
    Artist          : 蓝音BuBuLine (32426326)
    Comment         : mikufans直播间 32426326 的直播录像
                    : 主播名: 蓝音BuBuLine
                    : 直播标题: 技术主播没有GG
                    : 直播分区: 单机游戏·主机游戏
                    : 录制时间: 2025-07-26T15:41:51.7932987+00:00
                    : 直播服务器:
                    : d1--ov-gotcha07b.bilivideo.com [156.59.188.245]
                    : 
                    : 使用 mikufans录播姬 录制 https://rec.danmuji.org
                    : 录播姬版本: 2.17.3
    RecordedBy      : BililiveRecorder mikufans录播姬
    RecordedFrom    : d1--ov-gotcha07b.bilivideo.com
    StreamServers   : d1--ov-gotcha07b.bilivideo.com [156.59.188.245]
    RecorderVersion : 2.17.3+Branch.tags-v2.17.3.Sha.96407e2eba9a597dd9997c6fb731725f4294a371
    StartTime       : Sat, 26 Jul 2025 15:41:51 +0000
    RoomId          : 32426326
    ShortId         : 0
    Name            : 蓝音BuBuLine
    StreamTitle     : 技术主播没有GG
    AreaNameParent  : 单机游戏
    AreaNameChild   : 主机游戏
  Duration: 05:25:12.70, start: 0.035000, bitrate: 8502 kb/s
  Stream #0:0: Video: h264 (High), yuv420p(tv, bt709, progressive), 2560x1440 [SAR 1:1 DAR 16:9], 10240 kb/s, 60 fps, 60 tbr, 1k tbn, 120 tbc
  Stream #0:1: Audio: aac (LC), 48000 Hz, stereo, fltp, 196 kb/s
Stream mapping:
  Stream #0:0 -> #0:0 (h264 (native) -> png (native))
Press [q] to stop, [?] for help
Output #0, image2, to '/storage/32426326/20250726/32426326-20250726-154151-780.all.thumb.png':
  Metadata:
    fps             : 60
    4.0             : false
    2.1             : false
    audiochannels   : 2
    4.1             : false
    displayWidth    : 2560
    5.1             : false
    3.1             : false
    7.1             : false
    AreaNameChild   : 主机游戏
    displayHeight   : 1440
    cdn_ip          : 192.168.252.5
    fileSize        : 0
    Title           : 技术主播没有GG
    Artist          : 蓝音BuBuLine (32426326)
    Comment         : mikufans直播间 32426326 的直播录像
                    : 主播名: 蓝音BuBuLine
                    : 直播标题: 技术主播没有GG
                    : 直播分区: 单机游戏·主机游戏
                    : 录制时间: 2025-07-26T15:41:51.7932987+00:00
                    : 直播服务器:
                    : d1--ov-gotcha07b.bilivideo.com [156.59.188.245]
                    : 
                    : 使用 mikufans录播姬 录制 https://rec.danmuji.org
                    : 录播姬版本: 2.17.3
    RecordedBy      : BililiveRecorder mikufans录播姬
    RecordedFrom    : d1--ov-gotcha07b.bilivideo.com
    StreamServers   : d1--ov-gotcha07b.bilivideo.com [156.59.188.245]
    RecorderVersion : 2.17.3+Branch.tags-v2.17.3.Sha.96407e2eba9a597dd9997c6fb731725f4294a371
    StartTime       : Sat, 26 Jul 2025 15:41:51 +0000
    RoomId          : 32426326
    ShortId         : 0
    Name            : 蓝音BuBuLine
    StreamTitle     : 技术主播没有GG
    AreaNameParent  : 单机游戏
    encoder         : Lavf58.76.100
  Stream #0:0: Video: png, rgb24(pc, gbr/bt709/bt709, progressive), 2560x1440 [SAR 1:1 DAR 16:9], q=2-31, 200 kb/s, 60 fps, 60 tbn
    Metadata:
      encoder         : Lavc58.134.100 png
frame=    1 fps=0.0 q=0.0 size=N/A time=00:00:00.00 bitrate=N/A speed=   0x    frame=    1 fps=0.0 q=-0.0 Lsize=N/A time=00:00:00.01 bitrate=N/A speed=0.0289x    
video:3110kB audio:0kB subtitle:0kB other streams:0kB global headers:0kB muxing overhead: unknown
ffmpeg version 4.4.2-0ubuntu0.22.04.1 Copyright (c) 2000-2021 the FFmpeg developers
  built with gcc 11 (Ubuntu 11.2.0-19ubuntu1)
  configuration: --prefix=/usr --extra-version=0ubuntu0.22.04.1 --toolchain=hardened --libdir=/usr/lib/x86_64-linux-gnu --incdir=/usr/include/x86_64-linux-gnu --arch=amd64 --enable-gpl --disable-stripping --enable-gnutls --enable-ladspa --enable-libaom --enable-libass --enable-libbluray --enable-libbs2b --enable-libcaca --enable-libcdio --enable-libcodec2 --enable-libdav1d --enable-libflite --enable-libfontconfig --enable-libfreetype --enable-libfribidi --enable-libgme --enable-libgsm --enable-libjack --enable-libmp3lame --enable-libmysofa --enable-libopenjpeg --enable-libopenmpt --enable-libopus --enable-libpulse --enable-librabbitmq --enable-librubberband --enable-libshine --enable-libsnappy --enable-libsoxr --enable-libspeex --enable-libsrt --enable-libssh --enable-libtheora --enable-libtwolame --enable-libvidstab --enable-libvorbis --enable-libvpx --enable-libwebp --enable-libx265 --enable-libxml2 --enable-libxvid --enable-libzimg --enable-libzmq --enable-libzvbi --enable-lv2 --enable-omx --enable-openal --enable-opencl --enable-opengl --enable-sdl2 --enable-pocketsphinx --enable-librsvg --enable-libmfx --enable-libdc1394 --enable-libdrm --enable-libiec61883 --enable-chromaprint --enable-frei0r --enable-libx264 --enable-shared
  libavutil      56. 70.100 / 56. 70.100
  libavcodec     58.134.100 / 58.134.100
  libavformat    58. 76.100 / 58. 76.100
  libavdevice    58. 13.100 / 58. 13.100
  libavfilter     7.110.100 /  7.110.100
  libswscale      5.  9.100 /  5.  9.100
  libswresample   3.  9.100 /  3.  9.100
  libpostproc    55.  9.100 / 55.  9.100
[flv @ 0x5a1788465400] Auto-inserting h264_mp4toannexb bitstream filter
Input #0, concat, from '/storage/32426326/20250726/32426326-20250726-154151-780.all.concat.txt':
  Duration: N/A, start: 0.000000, bitrate: 10436 kb/s
  Stream #0:0: Video: h264 (High), yuv420p(tv, bt709, progressive), 2560x1440 [SAR 1:1 DAR 16:9], 10240 kb/s, 60 fps, 60 tbr, 1k tbn, 120 tbc
  Stream #0:1: Audio: aac (LC), 48000 Hz, stereo, fltp, 196 kb/s
Output #0, flv, to '/storage/32426326/20250726/32426326-20250726-154151-780.all.flv':
  Metadata:
    encoder         : Lavf58.76.100
  Stream #0:0: Video: h264 (High) ([7][0][0][0] / 0x0007), yuv420p(tv, bt709, progressive), 2560x1440 [SAR 1:1 DAR 16:9], q=2-31, 10240 kb/s, 60 fps, 60 tbr, 1k tbn, 1k tbc
  Stream #0:1: Audio: aac (LC) ([10][0][0][0] / 0x000A), 48000 Hz, stereo, fltp, 196 kb/s
Stream mapping:
  Stream #0:0 -> #0:0 (copy)
  Stream #0:1 -> #0:1 (copy)
Press [q] to stop, [?] for help
frame=    1 fps=0.0 q=-1.0 size=       0kB time=00:00:00.00 bitrate=N/A speed=   0x    frame= 4869 fps=0.0 q=-1.0 size=   31488kB time=00:01:21.24 bitrate=3175.2kbits/s speed= 162x    frame= 6583 fps=6579 q=-1.0 size=   66816kB time=00:01:49.79 bitrate=4985.4kbits/s speed= 110x    frame= 8124 fps=5412 q=-1.0 size=   99072kB time=00:02:15.46 bitrate=5991.2kbits/s speed=90.2x    frame= 9751 fps=4872 q=-1.0 size=  133120kB time=00:02:42.56 bitrate=6708.2kbits/s speed=81.2x    frame=11277 fps=4508 q=-1.0 size=  164608kB time=00:03:07.96 bitrate=7174.2kbits/s speed=75.1x    frame=12682 fps=4223 q=-1.0 size=  194048kB time=00:03:31.38 bitrate=7520.0kbits/s speed=70.4x    frame=14243 fps=4065 q=-1.0 size=  226304kB time=00:03:57.35 bitrate=7810.7kbits/s speed=67.7x    frame=15851 fps=3957 q=-1.0 size=  259840kB time=00:04:24.17 bitrate=8057.7kbits/s speed=  66x    frame=17381 fps=3858 q=-1.0 size=  291584kB time=00:04:49.65 bitrate=8246.6kbits/s speed=64.3x    frame=18911 fps=3778 q=-1.0 size=  323328kB time=00:05:15.13 bitrate=8405.0kbits/s speed=62.9x    frame=20634 fps=3747 q=-1.0 size=  359168kB time=00:05:43.80 bitrate=8558.0kbits/s speed=62.4x    frame=22228 fps=3701 q=-1.0 size=  392192kB time=00:06:10.38 bitrate=8674.3kbits/s speed=61.7x    frame=23720 fps=3645 q=-1.0 size=  423424kB time=00:06:35.20 bitrate=8777.0kbits/s speed=60.7x    frame=25492 fps=3638 q=-1.0 size=  460288kB time=00:07:04.73 bitrate=8877.6kbits/s speed=60.6x    frame=27155 fps=3617 q=-1.0 size=  494848kB time=00:07:32.43 bitrate=8960.0kbits/s speed=60.3x    frame=28631 fps=3575 q=-1.0 size=  525568kB time=00:07:57.01 bitrate=9025.8kbits/s speed=59.6x    frame=30129 fps=3540 q=-1.0 size=  556800kB time=00:08:21.91 bitrate=9087.8kbits/s speed=  59x    frame=31715 fps=3519 q=-1.0 size=  589568kB time=00:08:48.35 bitrate=9141.0kbits/s speed=58.6x    frame=33280 fps=3499 q=-1.0 size=  622336kB time=00:09:14.42 bitrate=9195.5kbits/s speed=58.3x    frame=34980 fps=3494 q=-1.0 size=  657408kB time=00:09:42.74 bitrate=9241.6kbits/s speed=58.2x    frame=36502 fps=3472 q=-1.0 size=  689408kB time=00:10:08.07 bitrate=9287.7kbits/s speed=57.8x    frame=38058 fps=3456 q=-1.0 size=  721408kB time=00:10:34.01 bitrate=9321.1kbits/s speed=57.6x    frame=39739 fps=3451 q=-1.0 size=  756480kB time=00:11:02.01 bitrate=9361.0kbits/s speed=57.5x    frame=42009 fps=3496 q=-1.0 size=  790528kB time=00:11:39.82 bitrate=9253.8kbits/s speed=58.2x    frame=43667 fps=3489 q=-1.0 size=  825088kB time=00:12:07.46 bitrate=9291.3kbits/s speed=58.1x    frame=45426 fps=3490 q=-1.0 size=  861696kB time=00:12:36.77 bitrate=9327.8kbits/s speed=58.1x    frame=47156 fps=3488 q=-1.0 size=  897536kB time=00:13:05.56 bitrate=9359.6kbits/s speed=58.1x    frame=48923 fps=3490 q=-1.0 size=  934400kB time=00:13:35.00 bitrate=9392.1kbits/s speed=58.1x    frame=50679 fps=3491 q=-1.0 size=  970752kB time=00:14:04.25 bitrate=9419.5kbits/s speed=58.2x    frame=52246 fps=3479 q=-1.0 size= 1003520kB time=00:14:30.32 bitrate=9445.7kbits/s speed=  58x    frame=54002 fps=3480 q=-1.0 size= 1040384kB time=00:14:59.57 bitrate=9474.3kbits/s speed=  58x    frame=55727 fps=3479 q=-1.0 size= 1075968kB time=00:15:28.34 bitrate=9494.7kbits/s speed=57.9x    frame=57379 fps=3473 q=-1.0 size= 1110272kB time=00:15:55.82 bitrate=9515.7kbits/s speed=57.9x    frame=59126 fps=3474 q=-1.0 size= 1146624kB time=00:16:24.94 bitrate=9536.7kbits/s speed=57.9x    frame=60831 fps=3472 q=-1.0 size= 1181952kB time=00:16:53.36 bitrate=9554.8kbits/s speed=57.8x    frame=62385 fps=3462 q=-1.0 size= 1214208kB time=00:17:19.24 bitrate=9571.2kbits/s speed=57.7x    frame=64046 fps=3458 q=-1.0 size= 1249024kB time=00:17:46.93 bitrate=9590.1kbits/s speed=57.6x    frame=65711 fps=3454 q=-1.0 size= 1283584kB time=00:18:14.68 bitrate=9605.6kbits/s speed=57.5x    frame=67429 fps=3454 q=-1.0 size= 1319168kB time=00:18:43.30 bitrate=9620.4kbits/s speed=57.5x    frame=69146 fps=3453 q=-1.0 size= 1355008kB time=00:19:11.88 bitrate=9636.6kbits/s speed=57.5x    frame=70748 fps=3447 q=-1.0 size= 1388288kB time=00:19:38.60 bitrate=9649.4kbits/s speed=57.4x    frame=72303 fps=3439 q=-1.0 size= 1420800kB time=00:20:04.48 bitrate=9663.2kbits/s speed=57.3x    frame=73980 fps=3437 q=-1.0 size= 1455360kB time=00:20:32.42 bitrate=9673.9kbits/s speed=57.3x    frame=75544 fps=3430 q=-1.0 size= 1488128kB time=00:20:58.47 bitrate=9686.9kbits/s speed=57.1x    frame=77208 fps=3428 q=-1.0 size= 1522432kB time=00:21:26.18 bitrate=9696.7kbits/s speed=57.1x    frame=78915 fps=3427 q=-1.0 size= 1558016kB time=00:21:54.59 bitrate=9708.9kbits/s speed=57.1x    frame=80447 fps=3419 q=-1.0 size= 1590016kB time=00:22:20.12 bitrate=9719.6kbits/s speed=  57x    frame=82162 fps=3419 q=-1.0 size= 1625600kB time=00:22:48.66 bitrate=9729.9kbits/s speed=  57x    frame=85731 fps=3495 q=-1.0 size= 1659392kB time=00:23:48.13 bitrate=9518.5kbits/s speed=58.2x    frame=88136 fps=3522 q=-1.0 size= 1692928kB time=00:24:28.20 bitrate=9445.9kbits/s speed=58.7x    frame=90363 fps=3540 q=-1.0 size= 1728512kB time=00:25:05.28 bitrate=9406.8kbits/s speed=  59x    frame=92497 fps=3553 q=-1.0 size= 1763840kB time=00:25:40.82 bitrate=9377.7kbits/s speed=59.2x    frame=94349 fps=3556 q=-1.0 size= 1795584kB time=00:26:11.68 bitrate=9359.0kbits/s speed=59.2x    frame=96433 fps=3567 q=-1.0 size= 1830656kB time=00:26:46.41 bitrate=9335.6kbits/s speed=59.4x    frame=98432 fps=3575 q=-1.0 size= 1866240kB time=00:27:19.71 bitrate=9323.7kbits/s speed=59.6x    frame=100535 fps=3586 q=-1.0 size= 1901824kB time=00:27:54.72 bitrate=9302.9kbits/s speed=59.7x    frame=102496 fps=3592 q=-1.0 size= 1936640kB time=00:28:27.41 bitrate=9291.8kbits/s speed=59.8x    frame=104060 fps=3584 q=-1.0 size= 1967360kB time=00:28:53.46 bitrate=9297.3kbits/s speed=59.7x    frame=105821 fps=3583 q=-1.0 size= 1998336kB time=00:29:22.77 bitrate=9286.7kbits/s speed=59.7x    frame=107588 fps=3582 q=-1.0 size= 2029312kB time=00:29:52.19 bitrate=9275.9kbits/s speed=59.7x    frame=109280 fps=3579 q=-1.0 size= 2059520kB time=00:30:20.37 bitrate=9268.2kbits/s speed=59.6x    frame=111032 fps=3578 q=-1.0 size= 2092800kB time=00:30:49.58 bitrate=9269.2kbits/s speed=59.6x    frame=112924 fps=3581 q=-1.0 size= 2126080kB time=00:31:21.10 bitrate=9258.9kbits/s speed=59.7x    frame=114867 fps=3586 q=-1.0 size= 2158848kB time=00:31:53.46 bitrate=9242.5kbits/s speed=59.7x    frame=116667 fps=3586 q=-1.0 size= 2192896kB time=00:32:23.45 bitrate=9243.4kbits/s speed=59.7x    frame=118426 fps=3585 q=-1.0 size= 2226176kB time=00:32:52.72 bitrate=9244.5kbits/s speed=59.7x    frame=121174 fps=3613 q=-1.0 size= 2255104kB time=00:33:38.51 bitrate=9152.2kbits/s speed=60.2x    frame=123025 fps=3614 q=-1.0 size= 2290944kB time=00:34:09.31 bitrate=9157.9kbits/s speed=60.2x    frame=124849 fps=3615 q=-1.0 size= 2327040kB time=00:34:39.71 bitrate=9166.2kbits/s speed=60.2x    frame=126456 fps=3609 q=-1.0 size= 2358784kB time=00:35:06.51 bitrate=9173.0kbits/s speed=60.1x    frame=128233 fps=3608 q=-1.0 size= 2392576kB time=00:35:36.12 bitrate=9175.5kbits/s speed=60.1x    frame=129880 fps=3604 q=-1.0 size= 2426112kB time=00:36:03.57 bitrate=9186.1kbits/s speed=  60x    frame=131677 fps=3604 q=-1.0 size= 2460416kB time=00:36:33.51 bitrate=9188.8kbits/s speed=  60x    frame=133407 fps=3602 q=-1.0 size= 2494464kB time=00:37:02.31 bitrate=9195.2kbits/s speed=  60x    frame=136139 fps=3626 q=-1.0 size= 2527488kB time=00:37:47.82 bitrate=9130.0kbits/s speed=60.4x    frame=138985 fps=3654 q=-1.0 size= 2558720kB time=00:38:35.20 bitrate=9053.6kbits/s speed=60.9x    frame=141539 fps=3672 q=-1.0 size= 2592256kB time=00:39:17.76 bitrate=9006.7kbits/s speed=61.2x    frame=143562 fps=3677 q=-1.0 size= 2625024kB time=00:39:51.46 bitrate=8992.1kbits/s speed=61.3x    frame=146063 fps=3694 q=-1.0 size= 2660608kB time=00:40:33.13 bitrate=8957.9kbits/s speed=61.5x    frame=148603 fps=3711 q=-1.0 size= 2695424kB time=00:41:15.40 bitrate=8920.1kbits/s speed=61.8x    frame=150829 fps=3720 q=-1.0 size= 2728960kB time=00:41:52.50 bitrate=8897.8kbits/s speed=  62x    frame=154376 fps=3761 q=-1.0 size= 2761984kB time=00:42:51.57 bitrate=8798.6kbits/s speed=62.7x    frame=156128 fps=3758 q=-1.0 size= 2795008kB time=00:43:20.79 bitrate=8803.7kbits/s speed=62.6x    frame=157724 fps=3751 q=-1.0 size= 2825984kB time=00:43:47.37 bitrate=8811.2kbits/s speed=62.5x    frame=159644 fps=3752 q=-1.0 size= 2861824kB time=00:44:19.35 bitrate=8815.7kbits/s speed=62.5x    frame=161499 fps=3751 q=-1.0 size= 2897408kB time=00:44:50.25 bitrate=8822.8kbits/s speed=62.5x    frame=163144 fps=3746 q=-1.0 size= 2928896kB time=00:45:17.65 bitrate=8828.8kbits/s speed=62.4x    frame=165528 fps=3758 q=-1.0 size= 2961664kB time=00:45:57.37 bitrate=8798.9kbits/s speed=62.6x    frame=167336 fps=3756 q=-1.0 size= 2993408kB time=00:46:27.49 bitrate=8797.1kbits/s speed=62.6x    frame=169329 fps=3759 q=-1.0 size= 3025664kB time=00:47:00.67 bitrate=8787.4kbits/s speed=62.6x    frame=171128 fps=3757 q=-1.0 size= 3059968kB time=00:47:30.67 bitrate=8793.4kbits/s speed=62.6x    frame=172957 fps=3756 q=-1.0 size= 3092480kB time=00:48:01.13 bitrate=8792.9kbits/s speed=62.6x    frame=175482 fps=3770 q=-1.0 size= 3126272kB time=00:48:43.16 bitrate=8761.2kbits/s speed=62.8x    frame=177590 fps=3774 q=-1.0 size= 3162112kB time=00:49:18.27 bitrate=8756.5kbits/s speed=62.9x    frame=179474 fps=3774 q=-1.0 size= 3196416kB time=00:49:49.69 bitrate=8758.4kbits/s speed=62.9x    frame=181367 fps=3774 q=-1.0 size= 3230976kB time=00:50:21.23 bitrate=8760.7kbits/s speed=62.9x    frame=183685 fps=3783 q=-1.0 size= 3264000kB time=00:50:59.85 bitrate=8738.5kbits/s speed=  63x    frame=185878 fps=3789 q=-1.0 size= 3293696kB time=00:51:36.39 bitrate=8714.0kbits/s speed=63.1x    frame=187759 fps=3789 q=-1.0 size= 3328256kB time=00:52:07.75 bitrate=8717.1kbits/s speed=63.1x    frame=189701 fps=3790 q=-1.0 size= 3362048kB time=00:52:40.09 bitrate=8715.5kbits/s speed=63.1x    frame=191213 fps=3782 q=-1.0 size= 3393024kB time=00:53:05.28 bitrate=8726.3kbits/s speed=  63x    frame=193105 fps=3782 q=-1.0 size= 3426560kB time=00:53:36.79 bitrate=8726.2kbits/s speed=  63x    frame=194908 fps=3781 q=-1.0 size= 3461888kB time=00:54:06.86 bitrate=8734.5kbits/s speed=  63x    frame=196540 fps=3776 q=-1.0 size= 3493120kB time=00:54:34.05 bitrate=8740.1kbits/s speed=62.9x    frame=198760 fps=3782 q=-1.0 size= 3528448kB time=00:55:11.01 bitrate=8730.0kbits/s speed=  63x    frame=201572 fps=3799 q=-1.0 size= 3562240kB time=00:55:57.88 bitrate=8690.6kbits/s speed=63.3x    frame=203300 fps=3796 q=-1.0 size= 3593728kB time=00:56:26.65 bitrate=8692.9kbits/s speed=63.2x    frame=205149 fps=3795 q=-1.0 size= 3628032kB time=00:56:57.47 bitrate=8696.7kbits/s speed=63.2x    frame=206966 fps=3794 q=-1.0 size= 3662336kB time=00:57:27.75 bitrate=8701.8kbits/s speed=63.2x    frame=208637 fps=3789 q=-1.0 size= 3695360kB time=00:57:55.60 bitrate=8710.0kbits/s speed=63.1x    frame=210554 fps=3790 q=-1.0 size= 3730688kB time=00:58:27.50 bitrate=8713.3kbits/s speed=63.1x    frame=212503 fps=3791 q=-1.0 size= 3764736kB time=00:58:59.99 bitrate=8712.1kbits/s speed=63.1x    frame=214257 fps=3788 q=-1.0 size= 3799040kB time=00:59:29.22 bitrate=8719.5kbits/s speed=63.1x    frame=216107 fps=3787 q=-1.0 size= 3834880kB time=01:00:00.06 bitrate=8726.3kbits/s speed=63.1x    frame=217855 fps=3785 q=-1.0 size= 3867648kB time=01:00:29.16 bitrate=8730.3kbits/s speed=  63x    frame=219519 fps=3781 q=-1.0 size= 3901952kB time=01:00:56.86 bitrate=8741.0kbits/s speed=  63x    frame=221495 fps=3782 q=-1.0 size= 3936256kB time=01:01:29.81 bitrate=8739.1kbits/s speed=  63x    frame=223209 fps=3779 q=-1.0 size= 3968256kB time=01:01:58.35 bitrate=8742.6kbits/s speed=  63x    frame=224781 fps=3774 q=-1.0 size= 4000256kB time=01:02:24.55 bitrate=8751.4kbits/s speed=62.9x    frame=226529 fps=3772 q=-1.0 size= 4034304kB time=01:02:53.68 bitrate=8757.8kbits/s speed=62.8x    frame=228886 fps=3779 q=-1.0 size= 4065536kB time=01:03:32.93 bitrate=8734.7kbits/s speed=  63x    frame=231726 fps=3795 q=-1.0 size= 4098560kB time=01:04:20.23 bitrate=8697.8kbits/s speed=63.2x    frame=233851 fps=3799 q=-1.0 size= 4131840kB time=01:04:55.60 bitrate=8688.8kbits/s speed=63.3x    frame=236113 fps=3804 q=-1.0 size= 4162048kB time=01:05:33.29 bitrate=8668.4kbits/s speed=63.4x    frame=238243 fps=3808 q=-1.0 size= 4193024kB time=01:06:08.79 bitrate=8654.8kbits/s speed=63.4x    frame=240808 fps=3819 q=-1.0 size= 4229632kB time=01:06:51.51 bitrate=8637.4kbits/s speed=63.6x    frame=243301 fps=3828 q=-1.0 size= 4262656kB time=01:07:33.06 bitrate=8615.6kbits/s speed=63.8x    frame=245856 fps=3838 q=-1.0 size= 4297472kB time=01:08:15.63 bitrate=8595.7kbits/s speed=63.9x    frame=248282 fps=3846 q=-1.0 size= 4330240kB time=01:08:56.01 bitrate=8576.7kbits/s speed=64.1x    frame=250860 fps=3856 q=-1.0 size= 4363264kB time=01:09:38.96 bitrate=8553.3kbits/s speed=64.2x    frame=253486 fps=3866 q=-1.0 size= 4399616kB time=01:10:22.68 bitrate=8535.2kbits/s speed=64.4x    frame=255378 fps=3866 q=-1.0 size= 4431616kB time=01:10:54.21 bitrate=8533.6kbits/s speed=64.4x    frame=257156 fps=3863 q=-1.0 size= 4463872kB time=01:11:23.79 bitrate=8536.4kbits/s speed=64.4x    frame=259168 fps=3864 q=-1.0 size= 4499456kB time=01:11:57.35 bitrate=8537.5kbits/s speed=64.4x    frame=261167 fps=3865 q=-1.0 size= 4535040kB time=01:12:30.63 bitrate=8539.2kbits/s speed=64.4x    frame=263044 fps=3865 q=-1.0 size= 4569344kB time=01:13:01.91 bitrate=8542.4kbits/s speed=64.4x    frame=265741 fps=3876 q=-1.0 size= 4602368kB time=01:13:46.82 bitrate=8516.8kbits/s speed=64.6x    frame=267613 fps=3875 q=-1.0 size= 4634624kB time=01:14:18.01 bitrate=8516.5kbits/s speed=64.5x    frame=270415 fps=3887 q=-1.0 size= 4665856kB time=01:15:04.68 bitrate=8485.1kbits/s speed=64.8x    frame=272014 fps=3882 q=-1.0 size= 4698112kB time=01:15:31.32 bitrate=8493.5kbits/s speed=64.7x    frame=273709 fps=3879 q=-1.0 size= 4732416kB time=01:15:59.55 bitrate=8502.6kbits/s speed=64.6x    frame=276205 fps=3886 q=-1.0 size= 4765184kB time=01:16:41.12 bitrate=8484.1kbits/s speed=64.7x    frame=278597 fps=3893 q=-1.0 size= 4796416kB time=01:17:20.99 bitrate=8466.3kbits/s speed=64.8x    frame=280644 fps=3894 q=-1.0 size= 4830976kB time=01:17:55.08 bitrate=8465.2kbits/s speed=64.9x    frame=283695 fps=3909 q=-1.0 size= 4860928kB time=01:18:45.91 bitrate=8426.0kbits/s speed=65.1x    frame=286273 fps=3918 q=-1.0 size= 4893952kB time=01:19:28.89 bitrate=8406.8kbits/s speed=65.3x    frame=288201 fps=3917 q=-1.0 size= 4927488kB time=01:20:01.01 bitrate=8407.8kbits/s speed=65.3x    frame=290962 fps=3928 q=-1.0 size= 4961536kB time=01:20:46.98 bitrate=8385.6kbits/s speed=65.4x    frame=292686 fps=3925 q=-1.0 size= 4994304kB time=01:21:15.71 bitrate=8391.3kbits/s speed=65.4x    frame=295099 fps=3931 q=-1.0 size= 5026304kB time=01:21:55.89 bitrate=8376.0kbits/s speed=65.5x    frame=297092 fps=3931 q=-1.0 size= 5062400kB time=01:22:29.11 bitrate=8379.5kbits/s speed=65.5x    frame=299470 fps=3937 q=-1.0 size= 5096704kB time=01:23:08.73 bitrate=8369.3kbits/s speed=65.6x    frame=301193 fps=3933 q=-1.0 size= 5130496kB time=01:23:37.42 bitrate=8376.6kbits/s speed=65.5x    frame=302966 fps=3931 q=-1.0 size= 5165056kB time=01:24:06.94 bitrate=8383.7kbits/s speed=65.5x    frame=304795 fps=3929 q=-1.0 size= 5200128kB time=01:24:37.40 bitrate=8390.0kbits/s speed=65.5x    frame=306563 fps=3926 q=-1.0 size= 5231360kB time=01:25:06.87 bitrate=8391.7kbits/s speed=65.4x    frame=308243 fps=3923 q=-1.0 size= 5264384kB time=01:25:34.84 bitrate=8398.7kbits/s speed=65.3x    frame=309902 fps=3919 q=-1.0 size= 5296896kB time=01:26:02.48 bitrate=8405.3kbits/s speed=65.3x    frame=311418 fps=3913 q=-1.0 size= 5327104kB time=01:26:27.72 bitrate=8412.1kbits/s speed=65.2x    frame=314006 fps=3921 q=-1.0 size= 5359104kB time=01:27:10.82 bitrate=8392.9kbits/s speed=65.3x    frame=315945 fps=3921 q=-1.0 size= 5391616kB time=01:27:43.16 bitrate=8391.9kbits/s speed=65.3x    frame=318228 fps=3925 q=-1.0 size= 5423360kB time=01:28:21.19 bitrate=8380.8kbits/s speed=65.4x    frame=319995 fps=3923 q=-1.0 size= 5456896kB time=01:28:50.62 bitrate=8386.1kbits/s speed=65.3x    frame=321816 fps=3921 q=-1.0 size= 5490432kB time=01:29:20.96 bitrate=8389.8kbits/s speed=65.3x    frame=323510 fps=3918 q=-1.0 size= 5523200kB time=01:29:49.15 bitrate=8395.8kbits/s speed=65.3x    frame=325325 fps=3916 q=-1.0 size= 5558784kB time=01:30:19.39 bitrate=8402.7kbits/s speed=65.2x    frame=326876 fps=3911 q=-1.0 size= 5590784kB time=01:30:45.21 bitrate=8411.0kbits/s speed=65.2x    frame=328577 fps=3908 q=-1.0 size= 5624064kB time=01:31:13.54 bitrate=8417.3kbits/s speed=65.1x    frame=330445 fps=3907 q=-1.0 size= 5658880kB time=01:31:44.63 bitrate=8421.5kbits/s speed=65.1x    frame=332014 fps=3902 q=-1.0 size= 5690368kB time=01:32:10.76 bitrate=8428.4kbits/s speed=  65x    frame=334504 fps=3909 q=-1.0 size= 5722368kB time=01:32:52.23 bitrate=8412.7kbits/s speed=65.1x    frame=336682 fps=3911 q=-1.0 size= 5757696kB time=01:33:28.56 bitrate=8409.8kbits/s speed=65.2x    frame=339078 fps=3916 q=-1.0 size= 5790208kB time=01:34:08.48 bitrate=8397.5kbits/s speed=65.2x    frame=340946 fps=3915 q=-1.0 size= 5825280kB time=01:34:39.56 bitrate=8402.2kbits/s speed=65.2x    frame=343174 fps=3918 q=-1.0 size= 5859840kB time=01:35:16.70 bitrate=8397.1kbits/s speed=65.3x    frame=345180 fps=3919 q=-1.0 size= 5892864kB time=01:35:50.12 bitrate=8395.4kbits/s speed=65.3x    frame=346879 fps=3916 q=-1.0 size= 5927680kB time=01:36:18.39 bitrate=8403.6kbits/s speed=65.2x    frame=349733 fps=3926 q=-1.0 size= 5960960kB time=01:37:05.97 bitrate=8381.8kbits/s speed=65.4x    frame=351392 fps=3922 q=-1.0 size= 5990912kB time=01:37:33.60 bitrate=8384.2kbits/s speed=65.3x    frame=353477 fps=3924 q=-1.0 size= 6024192kB time=01:38:08.33 bitrate=8381.0kbits/s speed=65.4x    frame=355433 fps=3924 q=-1.0 size= 6056704kB time=01:38:40.89 bitrate=8379.9kbits/s speed=65.4x    frame=357696 fps=3927 q=-1.0 size= 6088704kB time=01:39:18.60 bitrate=8370.9kbits/s speed=65.4x    frame=359435 fps=3925 q=-1.0 size= 6123264kB time=01:39:47.61 bitrate=8377.6kbits/s speed=65.4x    frame=361224 fps=3923 q=-1.0 size= 6156032kB time=01:40:17.39 bitrate=8380.7kbits/s speed=65.3x    frame=363627 fps=3927 q=-1.0 size= 6187264kB time=01:40:57.44 bitrate=8367.6kbits/s speed=65.4x    frame=365357 fps=3925 q=-1.0 size= 6221568kB time=01:41:26.22 bitrate=8374.2kbits/s speed=65.4x    frame=366986 fps=3921 q=-1.0 size= 6253056kB time=01:41:53.40 bitrate=8379.1kbits/s speed=65.3x    frame=369549 fps=3928 q=-1.0 size= 6284544kB time=01:42:36.09 bitrate=8362.9kbits/s speed=65.4x    frame=371602 fps=3929 q=-1.0 size= 6319872kB time=01:43:10.30 bitrate=8363.5kbits/s speed=65.4x    frame=373571 fps=3929 q=-1.0 size= 6352384kB time=01:43:43.09 bitrate=8362.2kbits/s speed=65.4x    frame=375359 fps=3927 q=-1.0 size= 6386176kB time=01:44:12.91 bitrate=8366.6kbits/s speed=65.4x    frame=377312 fps=3927 q=-1.0 size= 6421248kB time=01:44:45.44 bitrate=8369.0kbits/s speed=65.4x    frame=379144 fps=3925 q=-1.0 size= 6452736kB time=01:45:15.95 bitrate=8369.4kbits/s speed=65.4x    frame=381085 fps=3925 q=-1.0 size= 6485504kB time=01:45:48.30 bitrate=8369.1kbits/s speed=65.4x    frame=383163 fps=3926 q=-1.0 size= 6519552kB time=01:46:22.90 bitrate=8367.4kbits/s speed=65.4x    frame=384637 fps=3921 q=-1.0 size= 6550272kB time=01:46:47.46 bitrate=8374.6kbits/s speed=65.3x    frame=386968 fps=3925 q=-1.0 size= 6583552kB time=01:47:26.29 bitrate=8366.4kbits/s speed=65.4x    frame=388690 fps=3922 q=-1.0 size= 6615808kB time=01:47:54.95 bitrate=8370.2kbits/s speed=65.3x    frame=390685 fps=3923 q=-1.0 size= 6649600kB time=01:48:28.20 bitrate=8370.0kbits/s speed=65.3x    frame=392471 fps=3921 q=-1.0 size= 6684416kB time=01:48:57.93 bitrate=8375.5kbits/s speed=65.3x    frame=394189 fps=3919 q=-1.0 size= 6717440kB time=01:49:26.55 bitrate=8380.2kbits/s speed=65.3x    frame=395945 fps=3917 q=-1.0 size= 6750720kB time=01:49:55.80 bitrate=8384.4kbits/s speed=65.2x    frame=397870 fps=3916 q=-1.0 size= 6786560kB time=01:50:27.85 bitrate=8388.2kbits/s speed=65.2x    frame=399578 fps=3914 q=-1.0 size= 6818048kB time=01:50:56.27 bitrate=8391.1kbits/s speed=65.2x    frame=401152 fps=3910 q=-1.0 size= 6850304kB time=01:51:22.48 bitrate=8397.7kbits/s speed=65.1x    frame=403483 fps=3914 q=-1.0 size= 6883072kB time=01:52:01.31 bitrate=8389.2kbits/s speed=65.2x    frame=405270 fps=3912 q=-1.0 size= 6915840kB time=01:52:31.08 bitrate=8391.9kbits/s speed=65.2x    frame=407811 fps=3918 q=-1.0 size= 6948608kB time=01:53:13.42 bitrate=8379.1kbits/s speed=65.3x    frame=410004 fps=3920 q=-1.0 size= 6981120kB time=01:53:49.97 bitrate=8373.3kbits/s speed=65.3x    frame=412110 fps=3921 q=-1.0 size= 7012352kB time=01:54:25.04 bitrate=8367.8kbits/s speed=65.3x    frame=415292 fps=3933 q=-1.0 size= 7046400kB time=01:55:18.05 bitrate=8344.0kbits/s speed=65.5x    frame=417426 fps=3934 q=-1.0 size= 7080960kB time=01:55:53.59 bitrate=8342.0kbits/s speed=65.5x    frame=420095 fps=3941 q=-1.0 size= 7112448kB time=01:56:38.05 bitrate=8325.9kbits/s speed=65.6x    frame=421859 fps=3939 q=-1.0 size= 7145984kB time=01:57:07.41 bitrate=8330.2kbits/s speed=65.6x    frame=423580 fps=3937 q=-1.0 size= 7181056kB time=01:57:36.10 bitrate=8337.1kbits/s speed=65.6x    frame=425875 fps=3940 q=-1.0 size= 7213312kB time=01:58:14.33 bitrate=8329.4kbits/s speed=65.6x    frame=427610 fps=3937 q=-1.0 size= 7248384kB time=01:58:43.21 bitrate=8335.9kbits/s speed=65.6x    frame=429430 fps=3936 q=-1.0 size= 7282176kB time=01:59:13.53 bitrate=8339.3kbits/s speed=65.6x    frame=431058 fps=3933 q=-1.0 size= 7314944kB time=01:59:40.69 bitrate=8345.2kbits/s speed=65.5x    frame=433774 fps=3940 q=-1.0 size= 7350528kB time=02:00:25.94 bitrate=8333.2kbits/s speed=65.6x    frame=436742 fps=3949 q=-1.0 size= 7382528kB time=02:01:15.40 bitrate=8312.6kbits/s speed=65.8x    frame=438968 fps=3951 q=-1.0 size= 7415552kB time=02:01:52.49 bitrate=8307.5kbits/s speed=65.8x    frame=441463 fps=3956 q=-1.0 size= 7451136kB time=02:02:34.04 bitrate=8300.1kbits/s speed=65.9x    frame=443537 fps=3956 q=-1.0 size= 7484416kB time=02:03:08.59 bitrate=8298.2kbits/s speed=65.9x    frame=446547 fps=3966 q=-1.0 size= 7519744kB time=02:03:58.74 bitrate=8281.2kbits/s speed=66.1x    frame=448646 fps=3967 q=-1.0 size= 7556864kB time=02:04:33.71 bitrate=8283.1kbits/s speed=66.1x    frame=450408 fps=3965 q=-1.0 size= 7589888kB time=02:05:03.03 bitrate=8286.8kbits/s speed=  66x    frame=452323 fps=3964 q=-1.0 size= 7626496kB time=02:05:34.92 bitrate=8291.6kbits/s speed=  66x    frame=454899 fps=3969 q=-1.0 size= 7659776kB time=02:06:17.83 bitrate=8280.6kbits/s speed=66.1x    frame=456824 fps=3969 q=-1.0 size= 7694080kB time=02:06:49.92 bitrate=8282.6kbits/s speed=66.1x    frame=458784 fps=3968 q=-1.0 size= 7730432kB time=02:07:22.58 bitrate=8286.2kbits/s speed=66.1x    frame=461213 fps=3972 q=-1.0 size= 7766272kB time=02:08:03.03 bitrate=8280.8kbits/s speed=66.2x    frame=463661 fps=3976 q=-1.0 size= 7801856kB time=02:08:43.78 bitrate=8274.8kbits/s speed=66.2x    frame=466015 fps=3979 q=-1.0 size= 7836928kB time=02:09:23.01 bitrate=8270.0kbits/s speed=66.3x    frame=468375 fps=3982 q=-1.0 size= 7870976kB time=02:10:02.34 bitrate=8264.1kbits/s speed=66.3x    frame=471246 fps=3990 q=-1.0 size= 7904768kB time=02:10:50.17 bitrate=8249.0kbits/s speed=66.5x    frame=473376 fps=3991 q=-1.0 size= 7942144kB time=02:11:25.63 bitrate=8250.7kbits/s speed=66.5x    frame=475296 fps=3990 q=-1.0 size= 7978496kB time=02:11:57.62 bitrate=8255.0kbits/s speed=66.5x    frame=477414 fps=3991 q=-1.0 size= 8016128kB time=02:12:32.94 bitrate=8257.1kbits/s speed=66.5x    frame=479511 fps=3992 q=-1.0 size= 8052992kB time=02:13:07.84 bitrate=8258.8kbits/s speed=66.5x    frame=481414 fps=3991 q=-1.0 size= 8086528kB time=02:13:39.55 bitrate=8260.4kbits/s speed=66.5x    frame=483686 fps=3994 q=-1.0 size= 8123392kB time=02:14:17.40 bitrate=8259.1kbits/s speed=66.5x    frame=485855 fps=3995 q=-1.0 size= 8161280kB time=02:14:53.51 bitrate=8260.6kbits/s speed=66.5x    frame=488833 fps=4003 q=-1.0 size= 8196096kB time=02:15:43.13 bitrate=8245.3kbits/s speed=66.7x    frame=491105 fps=4005 q=-1.0 size= 8227584kB time=02:16:20.99 bitrate=8238.7kbits/s speed=66.7x    frame=493385 fps=4007 q=-1.0 size= 8261632kB time=02:16:58.94 bitrate=8234.5kbits/s speed=66.8x    frame=495804 fps=4011 q=-1.0 size= 8295424kB time=02:17:39.22 bitrate=8227.9kbits/s speed=66.8x    frame=498258 fps=4014 q=-1.0 size= 8330752kB time=02:18:20.10 bitrate=8222.2kbits/s speed=66.9x    frame=500416 fps=4016 q=-1.0 size= 8365312kB time=02:18:56.06 bitrate=8220.7kbits/s speed=66.9x    frame=502394 fps=4015 q=-1.0 size= 8398592kB time=02:19:28.98 bitrate=8221.0kbits/s speed=66.9x    frame=504474 fps=4016 q=-1.0 size= 8433920kB time=02:20:03.64 bitrate=8221.5kbits/s speed=66.9x    frame=506591 fps=4017 q=-1.0 size= 8467456kB time=02:20:38.90 bitrate=8219.7kbits/s speed=66.9x    frame=509527 fps=4024 q=-1.0 size= 8501504kB time=02:21:27.82 bitrate=8205.2kbits/s speed=  67x    frame=511492 fps=4024 q=-1.0 size= 8535040kB time=02:22:00.55 bitrate=8205.9kbits/s speed=  67x    frame=513723 fps=4025 q=-1.0 size= 8571136kB time=02:22:37.74 bitrate=8204.8kbits/s speed=67.1x    frame=515937 fps=4027 q=-1.0 size= 8607232kB time=02:23:14.63 bitrate=8204.0kbits/s speed=67.1x    frame=517780 fps=4025 q=-1.0 size= 8639744kB time=02:23:45.34 bitrate=8205.7kbits/s speed=67.1x    frame=520047 fps=4027 q=-1.0 size= 8674816kB time=02:24:23.09 bitrate=8203.1kbits/s speed=67.1x    frame=521859 fps=4026 q=-1.0 size= 8704512kB time=02:24:53.25 bitrate=8202.6kbits/s speed=67.1x    frame=523926 fps=4026 q=-1.0 size= 8738816kB time=02:25:27.68 bitrate=8202.4kbits/s speed=67.1x    frame=526006 fps=4027 q=-1.0 size= 8774144kB time=02:26:02.31 bitrate=8203.1kbits/s speed=67.1x    frame=528335 fps=4029 q=-1.0 size= 8808960kB time=02:26:41.16 bitrate=8199.3kbits/s speed=67.1x    frame=530383 fps=4029 q=-1.0 size= 8840704kB time=02:27:15.27 bitrate=8197.0kbits/s speed=67.1x    frame=532105 fps=4027 q=-1.0 size= 8873472kB time=02:27:43.95 bitrate=8200.8kbits/s speed=67.1x    frame=533943 fps=4026 q=-1.0 size= 8909312kB time=02:28:14.56 bitrate=8205.6kbits/s speed=67.1x    frame=535694 fps=4024 q=-1.0 size= 8942336kB time=02:28:43.72 bitrate=8209.1kbits/s speed=  67x    frame=537594 fps=4023 q=-1.0 size= 8977664kB time=02:29:15.34 bitrate=8212.4kbits/s speed=  67x    frame=539391 fps=4021 q=-1.0 size= 9013248kB time=02:29:45.29 bitrate=8217.5kbits/s speed=  67x    frame=541202 fps=4020 q=-1.0 size= 9048576kB time=02:30:15.47 bitrate=8222.1kbits/s speed=  67x    frame=543031 fps=4019 q=-1.0 size= 9084672kB time=02:30:45.93 bitrate=8227.1kbits/s speed=66.9x    frame=544597 fps=4015 q=-1.0 size= 9115648kB time=02:31:12.01 bitrate=8231.4kbits/s speed=66.9x    frame=546251 fps=4013 q=-1.0 size= 9149184kB time=02:31:39.58 bitrate=8236.7kbits/s speed=66.8x    frame=547994 fps=4011 q=-1.0 size= 9184256kB time=02:32:08.58 bitrate=8242.0kbits/s speed=66.8x    frame=549615 fps=4008 q=-1.0 size= 9216256kB time=02:32:35.63 bitrate=8246.2kbits/s speed=66.8x    frame=551427 fps=4006 q=-1.0 size= 9251584kB time=02:33:05.78 bitrate=8250.7kbits/s speed=66.7x    frame=553106 fps=4004 q=-1.0 size= 9285632kB time=02:33:33.77 bitrate=8255.9kbits/s speed=66.7x    frame=554684 fps=4001 q=-1.0 size= 9317120kB time=02:34:00.09 bitrate=8260.3kbits/s speed=66.7x    frame=556406 fps=3999 q=-1.0 size= 9351936kB time=02:34:28.78 bitrate=8265.5kbits/s speed=66.6x    frame=558159 fps=3997 q=-1.0 size= 9386240kB time=02:34:57.98 bitrate=8269.8kbits/s speed=66.6x    frame=559892 fps=3995 q=-1.0 size= 9418240kB time=02:35:26.85 bitrate=8272.3kbits/s speed=66.6x    frame=563520 fps=4007 q=-1.0 size= 9452544kB time=02:36:27.29 bitrate=8248.9kbits/s speed=66.7x    frame=565907 fps=4010 q=-1.0 size= 9483520kB time=02:37:07.04 bitrate=8241.1kbits/s speed=66.8x    frame=568961 fps=4017 q=-1.0 size= 9516032kB time=02:37:57.93 bitrate=8224.9kbits/s speed=66.9x    frame=571268 fps=4019 q=-1.0 size= 9548800kB time=02:38:36.32 bitrate=8220.0kbits/s speed=  67x    frame=575144 fps=4032 q=-1.0 size= 9580288kB time=02:39:40.90 bitrate=8191.5kbits/s speed=67.2x    frame=577358 fps=4034 q=-1.0 size= 9612032kB time=02:40:17.82 bitrate=8187.1kbits/s speed=67.2x    frame=579485 fps=4034 q=-1.0 size= 9646080kB time=02:40:53.25 bitrate=8185.9kbits/s speed=67.2x    frame=581531 fps=4034 q=-1.0 size= 9677056kB time=02:41:27.33 bitrate=8183.3kbits/s speed=67.2x    frame=583872 fps=4037 q=-1.0 size= 9710592kB time=02:42:06.32 bitrate=8178.8kbits/s speed=67.2x    frame=585948 fps=4037 q=-1.0 size= 9745920kB time=02:42:40.92 bitrate=8179.4kbits/s speed=67.3x    frame=587831 fps=4036 q=-1.0 size= 9776896kB time=02:43:12.27 bitrate=8179.1kbits/s speed=67.2x    frame=590282 fps=4039 q=-1.0 size= 9809664kB time=02:43:53.13 bitrate=8172.4kbits/s speed=67.3x    frame=592051 fps=4037 q=-1.0 size= 9843968kB time=02:44:22.61 bitrate=8176.5kbits/s speed=67.3x    frame=594856 fps=4043 q=-1.0 size= 9873920kB time=02:45:09.30 bitrate=8162.7kbits/s speed=67.3x    frame=597736 fps=4048 q=-1.0 size= 9907200kB time=02:45:57.27 bitrate=8150.8kbits/s speed=67.4x    frame=599670 fps=4048 q=-1.0 size= 9942272kB time=02:46:29.48 bitrate=8153.3kbits/s speed=67.4x    frame=601833 fps=4049 q=-1.0 size= 9975552kB time=02:47:05.51 bitrate=8151.2kbits/s speed=67.4x    frame=606099 fps=4064 q=-1.0 size=10009344kB time=02:48:16.57 bitrate=8121.2kbits/s speed=67.7x    frame=608970 fps=4069 q=-1.0 size=10043648kB time=02:49:04.39 bitrate=8110.6kbits/s speed=67.8x    frame=610989 fps=4069 q=-1.0 size=10075392kB time=02:49:38.02 bitrate=8109.4kbits/s speed=67.8x    frame=613798 fps=4074 q=-1.0 size=10108672kB time=02:50:24.83 bitrate=8098.9kbits/s speed=67.9x    frame=615479 fps=4072 q=-1.0 size=10139648kB time=02:50:52.84 bitrate=8101.6kbits/s speed=67.8x    frame=617211 fps=4070 q=-1.0 size=10171904kB time=02:51:21.69 bitrate=8104.5kbits/s speed=67.8x    frame=619122 fps=4069 q=-1.0 size=10206976kB time=02:51:53.54 bitrate=8107.4kbits/s speed=67.8x    frame=621001 fps=4068 q=-1.0 size=10240256kB time=02:52:24.82 bitrate=8109.2kbits/s speed=67.8x    frame=622810 fps=4067 q=-1.0 size=10273792kB time=02:52:54.92 bitrate=8112.1kbits/s speed=67.7x    frame=624700 fps=4066 q=-1.0 size=10308864kB time=02:53:26.43 bitrate=8115.2kbits/s speed=67.7x    frame=626349 fps=4063 q=-1.0 size=10340864kB time=02:53:53.88 bitrate=8119.0kbits/s speed=67.7x    frame=629307 fps=4069 q=-1.0 size=10374656kB time=02:54:43.16 bitrate=8107.2kbits/s speed=67.8x    frame=630985 fps=4067 q=-1.0 size=10408448kB time=02:55:11.10 bitrate=8112.0kbits/s speed=67.7x    frame=633700 fps=4071 q=-1.0 size=10438912kB time=02:55:56.34 bitrate=8100.9kbits/s speed=67.8x    frame=635745 fps=4071 q=-1.0 size=10473216kB time=02:56:30.43 bitrate=8101.3kbits/s speed=67.8x    frame=637480 fps=4069 q=-1.0 size=10507264kB time=02:56:59.33 bitrate=8105.5kbits/s speed=67.8x    frame=639183 fps=4067 q=-1.0 size=10540544kB time=02:57:27.70 bitrate=8109.6kbits/s speed=67.8x    frame=640954 fps=4065 q=-1.0 size=10575104kB time=02:57:57.18 bitrate=8113.7kbits/s speed=67.7x    frame=643493 fps=4069 q=-1.0 size=10607872kB time=02:58:39.50 bitrate=8106.7kbits/s speed=67.8x    frame=645719 fps=4070 q=-1.0 size=10642944kB time=02:59:16.56 bitrate=8105.5kbits/s speed=67.8x    frame=648061 fps=4072 q=-1.0 size=10677248kB time=02:59:55.59 bitrate=8102.2kbits/s speed=67.8x    frame=650039 fps=4071 q=-1.0 size=10710784kB time=03:00:28.52 bitrate=8102.9kbits/s speed=67.8x    frame=651799 fps=4070 q=-1.0 size=10744320kB time=03:00:57.86 bitrate=8106.3kbits/s speed=67.8x    frame=653475 fps=4067 q=-1.0 size=10779392kB time=03:01:25.77 bitrate=8111.9kbits/s speed=67.8x    frame=656041 fps=4071 q=-1.0 size=10809856kB time=03:02:08.53 bitrate=8103.0kbits/s speed=67.8x    frame=657655 fps=4068 q=-1.0 size=10842112kB time=03:02:35.41 bitrate=8107.3kbits/s speed=67.8x    frame=659516 fps=4067 q=-1.0 size=10874624kB time=03:03:06.45 bitrate=8108.6kbits/s speed=67.7x    frame=660977 fps=4063 q=-1.0 size=10904832kB time=03:03:30.79 bitrate=8113.2kbits/s speed=67.7x    frame=663082 fps=4064 q=-1.0 size=10939136kB time=03:04:05.87 bitrate=8112.8kbits/s speed=67.7x    frame=665056 fps=4064 q=-1.0 size=10974464kB time=03:04:38.76 bitrate=8114.9kbits/s speed=67.7x    frame=666984 fps=4063 q=-1.0 size=11009792kB time=03:05:10.88 bitrate=8117.5kbits/s speed=67.7x    frame=669711 fps=4067 q=-1.0 size=11043584kB time=03:05:56.31 bitrate=8109.2kbits/s speed=67.8x    frame=671439 fps=4065 q=-1.0 size=11074816kB time=03:06:25.11 bitrate=8111.2kbits/s speed=67.7x    frame=673137 fps=4063 q=-1.0 size=11106304kB time=03:06:53.36 bitrate=8113.8kbits/s speed=67.7x    frame=675054 fps=4062 q=-1.0 size=11141120kB time=03:07:25.31 bitrate=8116.1kbits/s speed=67.7x    frame=676717 fps=4060 q=-1.0 size=11173632kB time=03:07:53.01 bitrate=8119.8kbits/s speed=67.6x    frame=679505 fps=4065 q=-1.0 size=11204608kB time=03:08:39.47 bitrate=8108.9kbits/s speed=67.7x    frame=681636 fps=4065 q=-1.0 size=11236608kB time=03:09:14.98 bitrate=8106.6kbits/s speed=67.7x    frame=683350 fps=4063 q=-1.0 size=11269888kB time=03:09:43.51 bitrate=8110.2kbits/s speed=67.7x    frame=686742 fps=4071 q=-1.0 size=11302656kB time=03:10:40.01 bitrate=8093.6kbits/s speed=67.8x    frame=688521 fps=4070 q=-1.0 size=11336192kB time=03:11:09.66 bitrate=8096.7kbits/s speed=67.8x    frame=691316 fps=4074 q=-1.0 size=11367424kB time=03:11:56.23 bitrate=8086.1kbits/s speed=67.9x    frame=694442 fps=4081 q=-1.0 size=11399680kB time=03:12:48.30 bitrate=8072.6kbits/s speed=  68x    frame=697492 fps=4087 q=-1.0 size=11432448kB time=03:13:39.12 bitrate=8060.4kbits/s speed=68.1x    frame=699921 fps=4089 q=-1.0 size=11463680kB time=03:14:19.52 bitrate=8054.4kbits/s speed=68.1x    frame=702707 fps=4093 q=-1.0 size=11496960kB time=03:15:05.96 bitrate=8045.7kbits/s speed=68.2x    frame=705976 fps=4100 q=-1.0 size=11529216kB time=03:16:00.42 bitrate=8030.9kbits/s speed=68.3x    frame=708590 fps=4104 q=-1.0 size=11559168kB time=03:16:43.97 bitrate=8022.1kbits/s speed=68.4x    frame=711373 fps=4108 q=-1.0 size=11593984kB time=03:17:30.31 bitrate=8014.8kbits/s speed=68.4x    frame=714051 fps=4111 q=-1.0 size=11626240kB time=03:18:14.92 bitrate=8007.0kbits/s speed=68.5x    frame=716906 fps=4116 q=-1.0 size=11655680kB time=03:19:02.52 bitrate=7995.2kbits/s speed=68.6x    frame=719224 fps=4117 q=-1.0 size=11692032kB time=03:19:41.13 bitrate=7994.3kbits/s speed=68.6x    frame=721190 fps=4117 q=-1.0 size=11726592kB time=03:20:13.89 bitrate=7996.1kbits/s speed=68.6x    frame=723043 fps=4116 q=-1.0 size=11760128kB time=03:20:44.73 bitrate=7998.4kbits/s speed=68.6x    frame=725349 fps=4117 q=-1.0 size=11795712kB time=03:21:23.17 bitrate=7997.1kbits/s speed=68.6x    frame=727147 fps=4116 q=-1.0 size=11828992kB time=03:21:53.14 bitrate=7999.8kbits/s speed=68.6x    frame=729975 fps=4120 q=-1.0 size=11858432kB time=03:22:40.23 bitrate=7988.7kbits/s speed=68.6x    frame=731675 fps=4118 q=-1.0 size=11893504kB time=03:23:08.54 bitrate=7993.7kbits/s speed=68.6x    frame=733675 fps=4118 q=-1.0 size=11927552kB time=03:23:41.87 bitrate=7994.7kbits/s speed=68.6x    frame=735560 fps=4117 q=-1.0 size=11962368kB time=03:24:13.26 bitrate=7997.5kbits/s speed=68.6x    frame=737426 fps=4116 q=-1.0 size=11999232kB time=03:24:44.34 bitrate=8001.9kbits/s speed=68.6x    frame=739309 fps=4115 q=-1.0 size=12034560kB time=03:25:15.72 bitrate=8005.0kbits/s speed=68.5x    frame=742130 fps=4119 q=-1.0 size=12069120kB time=03:26:02.74 bitrate=7997.4kbits/s speed=68.6x    frame=745716 fps=4127 q=-1.0 size=12100864kB time=03:27:02.48 bitrate=7979.9kbits/s speed=68.8x    frame=749009 fps=4134 q=-1.0 size=12130560kB time=03:27:57.30 bitrate=7964.3kbits/s speed=68.9x    frame=751085 fps=4134 q=-1.0 size=12164096kB time=03:28:31.90 bitrate=7964.3kbits/s speed=68.9x    frame=754304 fps=4140 q=-1.0 size=12197632kB time=03:29:25.54 bitrate=7952.1kbits/s speed=  69x    frame=757169 fps=4145 q=-1.0 size=12230656kB time=03:30:13.24 bitrate=7943.5kbits/s speed=  69x    frame=758825 fps=4142 q=-1.0 size=12265216kB time=03:30:40.81 bitrate=7948.6kbits/s speed=  69x    frame=760911 fps=4142 q=-1.0 size=12300288kB time=03:31:15.59 bitrate=7949.4kbits/s speed=  69x    frame=763187 fps=4144 q=-1.0 size=12333568kB time=03:31:53.49 bitrate=7947.2kbits/s speed=  69x    frame=764964 fps=4142 q=-1.0 size=12368640kB time=03:32:23.08 bitrate=7951.3kbits/s speed=  69x    frame=767435 fps=4144 q=-1.0 size=12401920kB time=03:33:04.27 bitrate=7947.0kbits/s speed=  69x    frame=769457 fps=4144 q=-1.0 size=12433664kB time=03:33:37.92 bitrate=7946.4kbits/s speed=  69x    frame=772727 fps=4150 q=-1.0 size=12466944kB time=03:34:32.40 bitrate=7934.0kbits/s speed=69.1x    frame=774624 fps=4149 q=-1.0 size=12500224kB time=03:35:04.00 bitrate=7935.7kbits/s speed=69.1x    frame=777042 fps=4151 q=-1.0 size=12531712kB time=03:35:44.31 bitrate=7930.9kbits/s speed=69.2x    frame=778911 fps=4150 q=-1.0 size=12564736kB time=03:36:15.42 bitrate=7932.7kbits/s speed=69.1x    frame=781157 fps=4151 q=-1.0 size=12596480kB time=03:36:52.86 bitrate=7929.9kbits/s speed=69.1x    frame=783600 fps=4153 q=-1.0 size=12630016kB time=03:37:33.53 bitrate=7926.2kbits/s speed=69.2x    frame=785526 fps=4152 q=-1.0 size=12663808kB time=03:38:05.60 bitrate=7927.9kbits/s speed=69.2x    frame=787246 fps=4150 q=-1.0 size=12695808kB time=03:38:34.25 bitrate=7930.6kbits/s speed=69.1x    frame=790312 fps=4155 q=-1.0 size=12730624kB time=03:39:25.31 bitrate=7921.5kbits/s speed=69.2x    frame=792097 fps=4154 q=-1.0 size=12766464kB time=03:39:55.08 bitrate=7925.9kbits/s speed=69.2x    frame=795416 fps=4160 q=-1.0 size=12797440kB time=03:40:50.37 bitrate=7912.0kbits/s speed=69.3x    frame=797995 fps=4163 q=-1.0 size=12832768kB time=03:41:33.34 bitrate=7908.2kbits/s speed=69.3x    frame=800820 fps=4167 q=-1.0 size=12865280kB time=03:42:20.41 bitrate=7900.2kbits/s speed=69.4x    frame=802761 fps=4166 q=-1.0 size=12896000kB time=03:42:52.74 bitrate=7899.9kbits/s speed=69.4x    frame=804451 fps=4164 q=-1.0 size=12929792kB time=03:43:20.87 bitrate=7904.0kbits/s speed=69.4x    frame=806074 fps=4162 q=-1.0 size=12963584kB time=03:43:47.88 bitrate=7908.7kbits/s speed=69.3x    frame=807625 fps=4159 q=-1.0 size=12995840kB time=03:44:13.73 bitrate=7913.2kbits/s speed=69.3x    frame=809299 fps=4157 q=-1.0 size=13030656kB time=03:44:41.62 bitrate=7918.0kbits/s speed=69.2x    frame=810875 fps=4154 q=-1.0 size=13063424kB time=03:45:07.86 bitrate=7922.5kbits/s speed=69.2x    frame=813453 fps=4157 q=-1.0 size=13097728kB time=03:45:50.81 bitrate=7918.1kbits/s speed=69.2x    frame=816352 fps=4161 q=-1.0 size=13133568kB time=03:46:39.08 bitrate=7911.6kbits/s speed=69.3x    frame=818458 fps=4161 q=-1.0 size=13167104kB time=03:47:14.17 bitrate=7911.4kbits/s speed=69.3x    frame=821070 fps=4164 q=-1.0 size=13202432kB time=03:47:57.69 bitrate=7907.3kbits/s speed=69.4x    frame=822879 fps=4162 q=-1.0 size=13237504kB time=03:48:27.81 bitrate=7910.9kbits/s speed=69.3x    frame=824657 fps=4161 q=-1.0 size=13267968kB time=03:48:57.44 bitrate=7912.0kbits/s speed=69.3x    frame=826422 fps=4159 q=-1.0 size=13301504kB time=03:49:26.82 bitrate=7915.1kbits/s speed=69.3x    frame=828123 fps=4157 q=-1.0 size=13335808kB time=03:49:55.18 bitrate=7919.2kbits/s speed=69.3x    frame=829888 fps=4156 q=-1.0 size=13367552kB time=03:50:24.58 bitrate=7921.2kbits/s speed=69.2x    frame=832314 fps=4157 q=-1.0 size=13402624kB time=03:51:04.99 bitrate=7918.8kbits/s speed=69.3x    frame=834976 fps=4160 q=-1.0 size=13436928kB time=03:51:49.34 bitrate=7913.8kbits/s speed=69.3x    frame=837039 fps=4160 q=-1.0 size=13466624kB time=03:52:23.70 bitrate=7911.7kbits/s speed=69.3x    frame=838824 fps=4159 q=-1.0 size=13499648kB time=03:52:53.44 bitrate=7914.2kbits/s speed=69.3x    frame=840532 fps=4157 q=-1.0 size=13533952kB time=03:53:21.89 bitrate=7918.2kbits/s speed=69.2x    frame=843095 fps=4159 q=-1.0 size=13565696kB time=03:54:04.58 bitrate=7912.7kbits/s speed=69.3x    frame=844818 fps=4158 q=-1.0 size=13601280kB time=03:54:33.25 bitrate=7917.3kbits/s speed=69.3x    frame=846614 fps=4156 q=-1.0 size=13632256kB time=03:55:03.14 bitrate=7918.5kbits/s speed=69.2x    frame=848317 fps=4154 q=-1.0 size=13667328kB time=03:55:31.54 bitrate=7922.9kbits/s speed=69.2x    frame=850510 fps=4155 q=-1.0 size=13702144kB time=03:56:08.06 bitrate=7922.6kbits/s speed=69.2x    frame=852081 fps=4152 q=-1.0 size=13734144kB time=03:56:34.20 bitrate=7926.5kbits/s speed=69.2x    frame=853777 fps=4151 q=-1.0 size=13769472kB time=03:57:02.45 bitrate=7931.1kbits/s speed=69.1x    frame=855451 fps=4149 q=-1.0 size=13804544kB time=03:57:30.33 bitrate=7935.7kbits/s speed=69.1x    frame=856969 fps=4146 q=-1.0 size=13836032kB time=03:57:55.61 bitrate=7939.7kbits/s speed=69.1x    frame=858633 fps=4144 q=-1.0 size=13870592kB time=03:58:23.33 bitrate=7944.2kbits/s speed=  69x    frame=860228 fps=4142 q=-1.0 size=13903616kB time=03:58:49.90 bitrate=7948.3kbits/s speed=  69x    frame=861706 fps=4139 q=-1.0 size=13934336kB time=03:59:14.51 bitrate=7952.2kbits/s speed=68.9x    frame=863318 fps=4136 q=-1.0 size=13967872kB time=03:59:41.33 bitrate=7956.5kbits/s speed=68.9x    frame=864996 fps=4135 q=-1.0 size=14002688kB time=04:00:09.29 bitrate=7960.8kbits/s speed=68.9x    frame=866467 fps=4132 q=-1.0 size=14033408kB time=04:00:33.77 bitrate=7964.8kbits/s speed=68.8x    frame=868131 fps=4130 q=-1.0 size=14067968kB time=04:01:01.46 bitrate=7969.1kbits/s speed=68.8x    frame=869737 fps=4128 q=-1.0 size=14101504kB time=04:01:28.23 bitrate=7973.3kbits/s speed=68.8x    frame=871282 fps=4125 q=-1.0 size=14133248kB time=04:01:53.99 bitrate=7977.1kbits/s speed=68.7x    frame=872897 fps=4123 q=-1.0 size=14167040kB time=04:02:20.89 bitrate=7981.4kbits/s speed=68.7x    frame=874520 fps=4121 q=-1.0 size=14200576kB time=04:02:47.93 bitrate=7985.4kbits/s speed=68.6x    frame=876037 fps=4118 q=-1.0 size=14232064kB time=04:03:13.21 bitrate=7989.3kbits/s speed=68.6x    frame=877870 fps=4117 q=-1.0 size=14266368kB time=04:03:43.73 bitrate=7991.8kbits/s speed=68.6x    frame=879433 fps=4115 q=-1.0 size=14298880kB time=04:04:09.75 bitrate=7995.8kbits/s speed=68.5x    frame=881435 fps=4115 q=-1.0 size=14333184kB time=04:04:43.12 bitrate=7996.8kbits/s speed=68.5x    frame=883133 fps=4113 q=-1.0 size=14368512kB time=04:05:11.41 bitrate=8001.1kbits/s speed=68.5x    frame=884694 fps=4111 q=-1.0 size=14401024kB time=04:05:37.39 bitrate=8005.0kbits/s speed=68.5x    frame=886304 fps=4109 q=-1.0 size=14434304kB time=04:06:04.23 bitrate=8008.9kbits/s speed=68.4x    frame=887942 fps=4107 q=-1.0 size=14468352kB time=04:06:31.52 bitrate=8013.0kbits/s speed=68.4x    frame=889499 fps=4104 q=-1.0 size=14500864kB time=04:06:57.43 bitrate=8017.0kbits/s speed=68.4x    frame=891168 fps=4103 q=-1.0 size=14535680kB time=04:07:25.26 bitrate=8021.2kbits/s speed=68.3x    frame=892777 fps=4101 q=-1.0 size=14568960kB time=04:07:52.03 bitrate=8025.1kbits/s speed=68.3x    frame=894350 fps=4098 q=-1.0 size=14601472kB time=04:08:18.24 bitrate=8028.8kbits/s speed=68.3x    frame=896017 fps=4097 q=-1.0 size=14636032kB time=04:08:45.97 bitrate=8032.9kbits/s speed=68.2x    frame=897572 fps=4094 q=-1.0 size=14668544kB time=04:09:11.89 bitrate=8036.8kbits/s speed=68.2x    frame=899043 fps=4092 q=-1.0 size=14699008kB time=04:09:36.37 bitrate=8040.3kbits/s speed=68.2x    frame=900660 fps=4090 q=-1.0 size=14733056kB time=04:10:03.34 bitrate=8044.4kbits/s speed=68.1x    frame=902149 fps=4087 q=-1.0 size=14763776kB time=04:10:28.13 bitrate=8047.9kbits/s speed=68.1x    frame=903697 fps=4085 q=-1.0 size=14795776kB time=04:10:53.89 bitrate=8051.5kbits/s speed=  68x    frame=905280 fps=4083 q=-1.0 size=14828800kB time=04:11:20.26 bitrate=8055.4kbits/s speed=  68x    frame=906816 fps=4081 q=-1.0 size=14860800kB time=04:11:45.83 bitrate=8059.1kbits/s speed=  68x    frame=908404 fps=4079 q=-1.0 size=14893824kB time=04:12:12.29 bitrate=8062.9kbits/s speed=67.9x    frame=910016 fps=4077 q=-1.0 size=14927360kB time=04:12:39.12 bitrate=8066.8kbits/s speed=67.9x    frame=911848 fps=4076 q=-1.0 size=14960128kB time=04:13:09.61 bitrate=8068.2kbits/s speed=67.9x    frame=913733 fps=4075 q=-1.0 size=14993920kB time=04:13:41.04 bitrate=8069.8kbits/s speed=67.9x    frame=915450 fps=4074 q=-1.0 size=15029760kB time=04:14:09.63 bitrate=8073.9kbits/s speed=67.9x    frame=916929 fps=4071 q=-1.0 size=15060224kB time=04:14:34.26 bitrate=8077.2kbits/s speed=67.8x    frame=918605 fps=4070 q=-1.0 size=15095040kB time=04:15:02.14 bitrate=8081.1kbits/s speed=67.8x    frame=920252 fps=4068 q=-1.0 size=15129344kB time=04:15:29.57 bitrate=8085.0kbits/s speed=67.8x    frame=921809 fps=4066 q=-1.0 size=15161856kB time=04:15:55.50 bitrate=8088.7kbits/s speed=67.7x    frame=923450 fps=4064 q=-1.0 size=15195904kB time=04:16:22.81 bitrate=8092.5kbits/s speed=67.7x    frame=925069 fps=4062 q=-1.0 size=15229440kB time=04:16:49.79 bitrate=8096.1kbits/s speed=67.7x    frame=926657 fps=4060 q=-1.0 size=15262464kB time=04:17:16.27 bitrate=8099.8kbits/s speed=67.6x    frame=928316 fps=4059 q=-1.0 size=15296768kB time=04:17:43.92 bitrate=8103.4kbits/s speed=67.6x    frame=929931 fps=4057 q=-1.0 size=15330560kB time=04:18:10.83 bitrate=8107.2kbits/s speed=67.6x    frame=931415 fps=4054 q=-1.0 size=15361280kB time=04:18:35.51 bitrate=8110.6kbits/s speed=67.5x    frame=933061 fps=4053 q=-1.0 size=15395584kB time=04:19:02.94 bitrate=8114.3kbits/s speed=67.5x    frame=934550 fps=4050 q=-1.0 size=15426560kB time=04:19:27.72 bitrate=8117.7kbits/s speed=67.5x    frame=935996 fps=4048 q=-1.0 size=15456512kB time=04:19:51.83 bitrate=8120.9kbits/s speed=67.4x    frame=937451 fps=4045 q=-1.0 size=15486720kB time=04:20:16.08 bitrate=8124.1kbits/s speed=67.4x    frame=939247 fps=4044 q=-1.0 size=15519232kB time=04:20:45.98 bitrate=8125.6kbits/s speed=67.4x    frame=940843 fps=4043 q=-1.0 size=15552256kB time=04:21:12.57 bitrate=8129.1kbits/s speed=67.3x    frame=942760 fps=4042 q=-1.0 size=15585280kB time=04:21:44.48 bitrate=8129.8kbits/s speed=67.3x    frame=944321 fps=4040 q=-1.0 size=15617280kB time=04:22:10.48 bitrate=8133.0kbits/s speed=67.3x    frame=945795 fps=4038 q=-1.0 size=15648000kB time=04:22:34.99 bitrate=8136.4kbits/s speed=67.3x    frame=947465 fps=4036 q=-1.0 size=15682816kB time=04:23:02.83 bitrate=8140.1kbits/s speed=67.2x    frame=949161 fps=4035 q=-1.0 size=15717888kB time=04:23:31.08 bitrate=8143.7kbits/s speed=67.2x    frame=950753 fps=4033 q=-1.0 size=15751168kB time=04:23:57.61 bitrate=8147.3kbits/s speed=67.2x    frame=952356 fps=4031 q=-1.0 size=15784448kB time=04:24:24.28 bitrate=8150.8kbits/s speed=67.2x    frame=953997 fps=4030 q=-1.0 size=15818496kB time=04:24:51.63 bitrate=8154.3kbits/s speed=67.1x    frame=955548 fps=4028 q=-1.0 size=15851008kB time=04:25:17.47 bitrate=8157.8kbits/s speed=67.1x    frame=957142 fps=4026 q=-1.0 size=15883520kB time=04:25:43.99 bitrate=8160.9kbits/s speed=67.1x    frame=958652 fps=4024 q=-1.0 size=15915264kB time=04:26:09.17 bitrate=8164.3kbits/s speed=  67x    frame=960145 fps=4022 q=-1.0 size=15945984kB time=04:26:34.01 bitrate=8167.4kbits/s speed=  67x    frame=961736 fps=4020 q=-1.0 size=15979008kB time=04:27:00.53 bitrate=8170.8kbits/s speed=  67x    frame=963224 fps=4018 q=-1.0 size=16010240kB time=04:27:25.32 bitrate=8174.1kbits/s speed=66.9x    frame=964694 fps=4016 q=-1.0 size=16040448kB time=04:27:49.81 bitrate=8177.0kbits/s speed=66.9x    frame=966586 fps=4015 q=-1.0 size=16074752kB time=04:28:21.30 bitrate=8178.5kbits/s speed=66.9x    frame=968170 fps=4013 q=-1.0 size=16107776kB time=04:28:47.72 bitrate=8181.9kbits/s speed=66.9x    frame=969974 fps=4012 q=-1.0 size=16140544kB time=04:29:17.75 bitrate=8183.3kbits/s speed=66.8x    frame=971571 fps=4011 q=-1.0 size=16173824kB time=04:29:44.38 bitrate=8186.7kbits/s speed=66.8x    frame=973082 fps=4009 q=-1.0 size=16205312kB time=04:30:09.52 bitrate=8189.9kbits/s speed=66.8x    frame=974616 fps=4007 q=-1.0 size=16237056kB time=04:30:35.09 bitrate=8193.0kbits/s speed=66.7x    frame=976210 fps=4005 q=-1.0 size=16270336kB time=04:31:01.61 bitrate=8196.4kbits/s speed=66.7x    frame=977768 fps=4003 q=-1.0 size=16302592kB time=04:31:27.54 bitrate=8199.6kbits/s speed=66.7x    frame=979411 fps=4002 q=-1.0 size=16336896kB time=04:31:54.95 bitrate=8203.0kbits/s speed=66.7x    frame=981015 fps=4000 q=-1.0 size=16370176kB time=04:32:21.65 bitrate=8206.3kbits/s speed=66.6x    frame=982447 fps=3998 q=-1.0 size=16399872kB time=04:32:45.53 bitrate=8209.2kbits/s speed=66.6x    frame=983997 fps=3996 q=-1.0 size=16432384kB time=04:33:11.33 bitrate=8212.5kbits/s speed=66.6x    frame=985595 fps=3994 q=-1.0 size=16465152kB time=04:33:37.94 bitrate=8215.6kbits/s speed=66.5x    frame=987025 fps=3992 q=-1.0 size=16495104kB time=04:34:01.74 bitrate=8218.6kbits/s speed=66.5x    frame=988541 fps=3990 q=-1.0 size=16526592kB time=04:34:27.00 bitrate=8221.6kbits/s speed=66.5x    frame=990203 fps=3989 q=-1.0 size=16560896kB time=04:34:54.69 bitrate=8224.9kbits/s speed=66.4x    frame=991762 fps=3987 q=-1.0 size=16593408kB time=04:35:20.63 bitrate=8228.1kbits/s speed=66.4x    frame=993321 fps=3985 q=-1.0 size=16625920kB time=04:35:46.61 bitrate=8231.3kbits/s speed=66.4x    frame=994856 fps=3983 q=-1.0 size=16657664kB time=04:36:12.17 bitrate=8234.3kbits/s speed=66.4x    frame=996288 fps=3981 q=-1.0 size=16687360kB time=04:36:36.03 bitrate=8237.1kbits/s speed=66.3x    frame=997800 fps=3979 q=-1.0 size=16719104kB time=04:37:01.23 bitrate=8240.2kbits/s speed=66.3x    frame=999549 fps=3978 q=-1.0 size=16753920kB time=04:37:30.37 bitrate=8242.9kbits/s speed=66.3x    frame=1001268 fps=3977 q=-1.0 size=16785152kB time=04:37:59.00 bitrate=8244.1kbits/s speed=66.3x    frame=1002799 fps=3975 q=-1.0 size=16816896kB time=04:38:24.49 bitrate=8247.1kbits/s speed=66.2x    frame=1004722 fps=3975 q=-1.0 size=16847616kB time=04:38:56.51 bitrate=8246.4kbits/s speed=66.2x    frame=1006131 fps=3973 q=-1.0 size=16877056kB time=04:39:19.98 bitrate=8249.2kbits/s speed=66.2x    frame=1007717 fps=3971 q=-1.0 size=16910080kB time=04:39:46.39 bitrate=8252.4kbits/s speed=66.2x    frame=1009331 fps=3970 q=-1.0 size=16943360kB time=04:40:13.29 bitrate=8255.4kbits/s speed=66.1x    frame=1010824 fps=3968 q=-1.0 size=16974336kB time=04:40:38.14 bitrate=8258.3kbits/s speed=66.1x    frame=1012351 fps=3966 q=-1.0 size=17006336kB time=04:41:03.58 bitrate=8261.3kbits/s speed=66.1x    frame=1013820 fps=3964 q=-1.0 size=17037056kB time=04:41:28.06 bitrate=8264.3kbits/s speed=  66x    frame=1015200 fps=3962 q=-1.0 size=17065472kB time=04:41:51.05 bitrate=8266.8kbits/s speed=  66x    frame=1016573 fps=3959 q=-1.0 size=17094144kB time=04:42:13.94 bitrate=8269.5kbits/s speed=  66x    frame=1017993 fps=3957 q=-1.0 size=17123584kB time=04:42:37.57 bitrate=8272.2kbits/s speed=65.9x    frame=1019546 fps=3955 q=-1.0 size=17155840kB time=04:43:03.44 bitrate=8275.2kbits/s speed=65.9x    frame=1021078 fps=3954 q=-1.0 size=17187584kB time=04:43:28.95 bitrate=8278.0kbits/s speed=65.9x    frame=1022687 fps=3952 q=-1.0 size=17220864kB time=04:43:55.75 bitrate=8281.0kbits/s speed=65.8x    frame=1024287 fps=3951 q=-1.0 size=17254400kB time=04:44:22.43 bitrate=8284.2kbits/s speed=65.8x    frame=1025774 fps=3949 q=-1.0 size=17285120kB time=04:44:47.22 bitrate=8286.9kbits/s speed=65.8x    frame=1027281 fps=3947 q=-1.0 size=17316608kB time=04:45:12.30 bitrate=8289.8kbits/s speed=65.8x    frame=1028827 fps=3945 q=-1.0 size=17348608kB time=04:45:38.09 bitrate=8292.6kbits/s speed=65.7x    frame=1030405 fps=3944 q=-1.0 size=17381376kB time=04:46:04.38 bitrate=8295.6kbits/s speed=65.7x    frame=1031857 fps=3942 q=-1.0 size=17411584kB time=04:46:28.55 bitrate=8298.3kbits/s speed=65.7x    frame=1033469 fps=3941 q=-1.0 size=17445120kB time=04:46:55.41 bitrate=8301.3kbits/s speed=65.6x    frame=1035018 fps=3939 q=-1.0 size=17477120kB time=04:47:21.20 bitrate=8304.1kbits/s speed=65.6x    frame=1036810 fps=3938 q=-1.0 size=17509888kB time=04:47:51.05 bitrate=8305.3kbits/s speed=65.6x    frame=1038400 fps=3937 q=-1.0 size=17543168kB time=04:48:17.51 bitrate=8308.3kbits/s speed=65.6x    frame=1039986 fps=3935 q=-1.0 size=17575680kB time=04:48:43.95 bitrate=8311.0kbits/s speed=65.6x    frame=1041960 fps=3935 q=-1.0 size=17609216kB time=04:49:16.78 bitrate=8311.1kbits/s speed=65.6x    frame=1043610 fps=3934 q=-1.0 size=17643264kB time=04:49:44.28 bitrate=8314.0kbits/s speed=65.5x    frame=1045202 fps=3933 q=-1.0 size=17676288kB time=04:50:10.82 bitrate=8316.9kbits/s speed=65.5x    frame=1046666 fps=3931 q=-1.0 size=17706752kB time=04:50:35.21 bitrate=8319.6kbits/s speed=65.5x    frame=1048227 fps=3929 q=-1.0 size=17739264kB time=04:51:01.18 bitrate=8322.5kbits/s speed=65.5x    frame=1049743 fps=3928 q=-1.0 size=17770752kB time=04:51:26.46 bitrate=8325.2kbits/s speed=65.4x    frame=1051455 fps=3927 q=-1.0 size=17806336kB time=04:51:54.95 bitrate=8328.3kbits/s speed=65.4x    frame=1053073 fps=3925 q=-1.0 size=17840128kB time=04:52:21.91 bitrate=8331.3kbits/s speed=65.4x    frame=1054667 fps=3924 q=-1.0 size=17873152kB time=04:52:48.47 bitrate=8334.1kbits/s speed=65.4x    frame=1056383 fps=3923 q=-1.0 size=17908736kB time=04:53:17.02 bitrate=8337.1kbits/s speed=65.4x    frame=1058044 fps=3922 q=-1.0 size=17943296kB time=04:53:44.70 bitrate=8340.1kbits/s speed=65.3x    frame=1059657 fps=3921 q=-1.0 size=17976832kB time=04:54:11.56 bitrate=8343.0kbits/s speed=65.3x    frame=1061201 fps=3919 q=-1.0 size=18008832kB time=04:54:37.22 bitrate=8345.7kbits/s speed=65.3x    frame=1062739 fps=3918 q=-1.0 size=18041088kB time=04:55:02.87 bitrate=8348.5kbits/s speed=65.3x    frame=1064419 fps=3917 q=-1.0 size=18075904kB time=04:55:30.84 bitrate=8351.4kbits/s speed=65.2x    frame=1065917 fps=3915 q=-1.0 size=18106880kB time=04:55:55.84 bitrate=8354.0kbits/s speed=65.2x    frame=1067462 fps=3913 q=-1.0 size=18139136kB time=04:56:21.58 bitrate=8356.7kbits/s speed=65.2x    frame=1069014 fps=3912 q=-1.0 size=18171136kB time=04:56:47.43 bitrate=8359.3kbits/s speed=65.2x    frame=1070504 fps=3910 q=-1.0 size=18202368kB time=04:57:12.23 bitrate=8362.0kbits/s speed=65.1x    frame=1072128 fps=3909 q=-1.0 size=18235904kB time=04:57:39.30 bitrate=8364.7kbits/s speed=65.1x    frame=1073824 fps=3908 q=-1.0 size=18269696kB time=04:58:07.54 bitrate=8367.0kbits/s speed=65.1x    frame=1075643 fps=3908 q=-1.0 size=18302976kB time=04:58:37.85 bitrate=8368.1kbits/s speed=65.1x    frame=1077496 fps=3907 q=-1.0 size=18336512kB time=04:59:08.74 bitrate=8369.0kbits/s speed=65.1x    frame=1079104 fps=3906 q=-1.0 size=18370048kB time=04:59:35.52 bitrate=8371.8kbits/s speed=65.1x    frame=1080630 fps=3904 q=-1.0 size=18401792kB time=05:00:00.92 bitrate=8374.4kbits/s speed=  65x    frame=1082285 fps=3903 q=-1.0 size=18436096kB time=05:00:28.50 bitrate=8377.2kbits/s speed=  65x    frame=1083875 fps=3902 q=-1.0 size=18468864kB time=05:00:55.00 bitrate=8379.8kbits/s speed=  65x    frame=1085471 fps=3901 q=-1.0 size=18502144kB time=05:01:21.57 bitrate=8382.5kbits/s speed=  65x    frame=1087090 fps=3900 q=-1.0 size=18535936kB time=05:01:48.56 bitrate=8385.3kbits/s speed=  65x    frame=1088607 fps=3898 q=-1.0 size=18567424kB time=05:02:13.81 bitrate=8387.9kbits/s speed=64.9x    frame=1090243 fps=3897 q=-1.0 size=18601216kB time=05:02:41.06 bitrate=8390.5kbits/s speed=64.9x    frame=1091923 fps=3896 q=-1.0 size=18636288kB time=05:03:09.05 bitrate=8393.4kbits/s speed=64.9x    frame=1093436 fps=3894 q=-1.0 size=18667776kB time=05:03:34.24 bitrate=8396.0kbits/s speed=64.9x    frame=1095108 fps=3893 q=-1.0 size=18702592kB time=05:04:02.08 bitrate=8398.8kbits/s speed=64.9x    frame=1096676 fps=3892 q=-1.0 size=18735360kB time=05:04:28.21 bitrate=8401.5kbits/s speed=64.8x    frame=1098264 fps=3891 q=-1.0 size=18768128kB time=05:04:54.66 bitrate=8404.0kbits/s speed=64.8x    frame=1099905 fps=3890 q=-1.0 size=18802176kB time=05:05:22.00 bitrate=8406.7kbits/s speed=64.8x    frame=1101594 fps=3889 q=-1.0 size=18837248kB time=05:05:50.11 bitrate=8409.5kbits/s speed=64.8x    frame=1103255 fps=3888 q=-1.0 size=18871808kB time=05:06:17.79 bitrate=8412.2kbits/s speed=64.8x    frame=1104955 fps=3887 q=-1.0 size=18907136kB time=05:06:46.08 bitrate=8415.0kbits/s speed=64.7x    frame=1106595 fps=3886 q=-1.0 size=18941184kB time=05:07:13.37 bitrate=8417.7kbits/s speed=64.7x    frame=1108411 fps=3885 q=-1.0 size=18974464kB time=05:07:43.64 bitrate=8418.6kbits/s speed=64.7x    frame=1110618 fps=3886 q=-1.0 size=19010048kB time=05:08:20.38 bitrate=8417.7kbits/s speed=64.7x    frame=1112230 fps=3885 q=-1.0 size=19043584kB time=05:08:47.22 bitrate=8420.3kbits/s speed=64.7x    frame=1113821 fps=3884 q=-1.0 size=19076608kB time=05:09:13.72 bitrate=8422.9kbits/s speed=64.7x    frame=1115511 fps=3883 q=-1.0 size=19111936kB time=05:09:41.86 bitrate=8425.7kbits/s speed=64.7x    frame=1117087 fps=3882 q=-1.0 size=19144448kB time=05:10:08.09 bitrate=8428.1kbits/s speed=64.7x    frame=1118670 fps=3880 q=-1.0 size=19177472kB time=05:10:34.46 bitrate=8430.7kbits/s speed=64.6x    frame=1120366 fps=3880 q=-1.0 size=19212544kB time=05:11:02.69 bitrate=8433.4kbits/s speed=64.6x    frame=1121891 fps=3878 q=-1.0 size=19244288kB time=05:11:28.06 bitrate=8435.8kbits/s speed=64.6x    frame=1123469 fps=3877 q=-1.0 size=19277056kB time=05:11:54.36 bitrate=8438.3kbits/s speed=64.6x    frame=1125102 fps=3876 q=-1.0 size=19311104kB time=05:12:21.56 bitrate=8440.9kbits/s speed=64.6x    frame=1126569 fps=3874 q=-1.0 size=19341568kB time=05:12:45.99 bitrate=8443.3kbits/s speed=64.5x    frame=1128461 fps=3874 q=-1.0 size=19374848kB time=05:13:17.49 bitrate=8443.6kbits/s speed=64.5x    frame=1130079 fps=3873 q=-1.0 size=19408640kB time=05:13:44.44 bitrate=8446.2kbits/s speed=64.5x    frame=1131849 fps=3872 q=-1.0 size=19437824kB time=05:14:13.91 bitrate=8445.7kbits/s speed=64.5x    frame=1133449 fps=3871 q=-1.0 size=19471104kB time=05:14:40.56 bitrate=8448.2kbits/s speed=64.5x    frame=1135054 fps=3870 q=-1.0 size=19504640kB time=05:15:07.30 bitrate=8450.8kbits/s speed=64.5x    frame=1136579 fps=3869 q=-1.0 size=19536128kB time=05:15:32.68 bitrate=8453.1kbits/s speed=64.4x    frame=1138191 fps=3868 q=-1.0 size=19569408kB time=05:15:59.56 bitrate=8455.5kbits/s speed=64.4x    frame=1139736 fps=3866 q=-1.0 size=19601664kB time=05:16:25.28 bitrate=8458.0kbits/s speed=64.4x    frame=1141355 fps=3865 q=-1.0 size=19635200kB time=05:16:52.25 bitrate=8460.4kbits/s speed=64.4x    frame=1143016 fps=3864 q=-1.0 size=19670016kB time=05:17:19.89 bitrate=8463.1kbits/s speed=64.4x    frame=1144535 fps=3863 q=-1.0 size=19701504kB time=05:17:45.19 bitrate=8465.4kbits/s speed=64.3x    frame=1146090 fps=3862 q=-1.0 size=19733760kB time=05:18:11.11 bitrate=8467.8kbits/s speed=64.3x    frame=1147686 fps=3860 q=-1.0 size=19767040kB time=05:18:37.71 bitrate=8470.2kbits/s speed=64.3x    frame=1149224 fps=3859 q=-1.0 size=19798784kB time=05:19:03.26 bitrate=8472.5kbits/s speed=64.3x    frame=1150810 fps=3858 q=-1.0 size=19831808kB time=05:19:29.70 bitrate=8474.9kbits/s speed=64.3x    frame=1152408 fps=3857 q=-1.0 size=19865088kB time=05:19:56.34 bitrate=8477.4kbits/s speed=64.2x    frame=1153873 fps=3855 q=-1.0 size=19895552kB time=05:20:20.72 bitrate=8479.6kbits/s speed=64.2x    frame=1155494 fps=3854 q=-1.0 size=19929088kB time=05:20:47.73 bitrate=8482.0kbits/s speed=64.2x    frame=1157111 fps=3853 q=-1.0 size=19962880kB time=05:21:14.65 bitrate=8484.5kbits/s speed=64.2x    frame=1158628 fps=3852 q=-1.0 size=19994112kB time=05:21:39.92 bitrate=8486.7kbits/s speed=64.2x    frame=1160232 fps=3851 q=-1.0 size=20027904kB time=05:22:06.64 bitrate=8489.2kbits/s speed=64.1x    frame=1161838 fps=3850 q=-1.0 size=20061184kB time=05:22:33.38 bitrate=8491.6kbits/s speed=64.1x    frame=1163406 fps=3849 q=-1.0 size=20093696kB time=05:22:59.52 bitrate=8493.9kbits/s speed=64.1x    frame=1164968 fps=3847 q=-1.0 size=20124416kB time=05:23:25.54 bitrate=8495.5kbits/s speed=64.1x    frame=1166870 fps=3847 q=-1.0 size=20156928kB time=05:23:57.20 bitrate=8495.3kbits/s speed=64.1x    frame=1168447 fps=3846 q=-1.0 size=20189952kB time=05:24:23.46 bitrate=8497.8kbits/s speed=64.1x    frame=1170107 fps=3845 q=-1.0 size=20224256kB time=05:24:51.12 bitrate=8500.1kbits/s speed=64.1x    frame=1171399 fps=3844 q=-1.0 Lsize=20251373kB time=05:25:12.66 bitrate=8502.1kbits/s speed=  64x    
video:19746246kB audio:465906kB subtitle:0kB other streams:0kB global headers:0kB muxing overhead: 0.194046%
